<mxfile host="app.diagrams.net" modified="2023-06-25T11:28:16.865Z" agent="Mozilla/5.0 (Windows NT 10.0; Win64; x64) AppleWebKit/537.36 (KHTML, like Gecko) Chrome/113.0.0.0 Safari/537.36 OPR/99.0.0.0" etag="AtSVXz9j5dSi-UlQM0kl" version="21.5.0" type="device">
  <diagram name="Page-1" id="c4acf3e9-155e-7222-9cf6-157b1a14988f">
    <mxGraphModel dx="1140" dy="1089" grid="1" gridSize="10" guides="1" tooltips="1" connect="1" arrows="1" fold="1" page="1" pageScale="1" pageWidth="850" pageHeight="1100" background="none" math="0" shadow="0">
      <root>
        <mxCell id="0" />
        <mxCell id="1" parent="0" />
        <mxCell id="_NkSw2tW3m_VgN2hIup7-15" value="&lt;font style=&quot;font-size: 18px;&quot;&gt;&lt;b style=&quot;&quot;&gt;FILES&lt;/b&gt;&lt;/font&gt;" style="shape=umlFrame;whiteSpace=wrap;html=1;rounded=0;shadow=0;comic=0;labelBackgroundColor=none;strokeWidth=1;fontFamily=Verdana;fontSize=10;align=center;width=80;height=30;" vertex="1" parent="1">
          <mxGeometry x="1790" y="120" width="1240" height="740" as="geometry" />
        </mxCell>
        <mxCell id="_NkSw2tW3m_VgN2hIup7-1" value="&lt;font style=&quot;font-size: 18px;&quot;&gt;&lt;b style=&quot;&quot;&gt;FILES&lt;/b&gt;&lt;/font&gt;" style="shape=umlFrame;whiteSpace=wrap;html=1;rounded=0;shadow=0;comic=0;labelBackgroundColor=none;strokeWidth=1;fontFamily=Verdana;fontSize=10;align=center;width=80;height=30;" vertex="1" parent="1">
          <mxGeometry x="960" y="120" width="830" height="740" as="geometry" />
        </mxCell>
        <mxCell id="_NkSw2tW3m_VgN2hIup7-4" value="&lt;font style=&quot;font-size: 18px;&quot;&gt;CalculatorButton.kt&lt;/font&gt;" style="shape=folder;fontStyle=1;tabWidth=190;tabHeight=29;tabPosition=left;html=1;boundedLbl=1;labelInHeader=1;container=1;collapsible=0;whiteSpace=wrap;" vertex="1" parent="1">
          <mxGeometry x="1000" y="430" width="230" height="160" as="geometry" />
        </mxCell>
        <mxCell id="_NkSw2tW3m_VgN2hIup7-5" value="&lt;span style=&quot;font-size: 18px;&quot;&gt;&lt;br&gt;&lt;i style=&quot;&quot;&gt;&amp;lt;&amp;lt;Composable&amp;gt;&amp;gt;&lt;br&gt;&lt;/i&gt;CalculatorButton(&lt;br&gt;symbol: String, &lt;br&gt;modifier: Modifier, &lt;br&gt;onClick:()-&amp;gt;unit)&lt;br&gt;&lt;/span&gt;" style="html=1;strokeColor=none;resizeWidth=1;resizeHeight=1;fillColor=none;part=1;connectable=0;allowArrows=0;deletable=0;whiteSpace=wrap;" vertex="1" parent="_NkSw2tW3m_VgN2hIup7-4">
          <mxGeometry width="230.00000000000003" height="112" relative="1" as="geometry">
            <mxPoint y="30" as="offset" />
          </mxGeometry>
        </mxCell>
        <mxCell id="_NkSw2tW3m_VgN2hIup7-6" value="&lt;font style=&quot;font-size: 18px;&quot;&gt;TopBar.kt&lt;/font&gt;" style="shape=folder;fontStyle=1;tabWidth=120;tabHeight=30;tabPosition=left;html=1;boundedLbl=1;labelInHeader=1;container=1;collapsible=0;whiteSpace=wrap;" vertex="1" parent="1">
          <mxGeometry x="1400" y="220" width="190" height="100" as="geometry" />
        </mxCell>
        <mxCell id="_NkSw2tW3m_VgN2hIup7-7" value="&lt;span style=&quot;font-size: 18px;&quot;&gt;&lt;i style=&quot;&quot;&gt;&amp;lt;&amp;lt;Composable&amp;gt;&amp;gt;&lt;br&gt;&lt;/i&gt;TopBar()&lt;br&gt;&lt;/span&gt;" style="html=1;strokeColor=none;resizeWidth=1;resizeHeight=1;fillColor=none;part=1;connectable=0;allowArrows=0;deletable=0;whiteSpace=wrap;" vertex="1" parent="_NkSw2tW3m_VgN2hIup7-6">
          <mxGeometry width="190.00000000000003" height="70" relative="1" as="geometry">
            <mxPoint y="30" as="offset" />
          </mxGeometry>
        </mxCell>
        <mxCell id="_NkSw2tW3m_VgN2hIup7-10" value="&lt;font style=&quot;font-size: 18px;&quot;&gt;Calculator.kt&lt;/font&gt;" style="shape=folder;fontStyle=1;tabWidth=150;tabHeight=28;tabPosition=left;html=1;boundedLbl=1;labelInHeader=1;container=1;collapsible=0;whiteSpace=wrap;" vertex="1" parent="1">
          <mxGeometry x="1340" y="421" width="330" height="178" as="geometry" />
        </mxCell>
        <mxCell id="_NkSw2tW3m_VgN2hIup7-11" value="&lt;span style=&quot;font-size: 18px;&quot;&gt;&lt;br&gt;&lt;i style=&quot;&quot;&gt;&amp;lt;&amp;lt;Composable&amp;gt;&amp;gt;&lt;br&gt;&lt;/i&gt;Calculator(&lt;br&gt;state: CalculatorState, &lt;br&gt;modifier: Modifier, &lt;br&gt;buttonSpacing: Dp = 8.dp,&lt;br&gt;onAction:(CalculatorActions)-&amp;gt;unit)&lt;br&gt;&lt;/span&gt;" style="html=1;strokeColor=none;resizeWidth=1;resizeHeight=1;fillColor=none;part=1;connectable=0;allowArrows=0;deletable=0;whiteSpace=wrap;" vertex="1" parent="_NkSw2tW3m_VgN2hIup7-10">
          <mxGeometry width="330" height="124.60000000000001" relative="1" as="geometry">
            <mxPoint y="30" as="offset" />
          </mxGeometry>
        </mxCell>
        <mxCell id="_NkSw2tW3m_VgN2hIup7-12" value="&lt;p style=&quot;margin:0px;margin-top:4px;text-align:center;&quot;&gt;&lt;font style=&quot;font-size: 18px;&quot;&gt;&lt;i style=&quot;&quot;&gt;&amp;lt;&amp;lt;ViewModel&amp;gt;&amp;gt;&lt;/i&gt;&lt;br&gt;&lt;b&gt;CalculatorViewModel()&lt;/b&gt;&lt;/font&gt;&lt;/p&gt;&lt;hr size=&quot;1&quot;&gt;&lt;p style=&quot;margin:0px;margin-left:4px;&quot;&gt;&lt;font style=&quot;font-size: 18px;&quot;&gt;- MAX_NUM_LENGTH: Int = 8&lt;/font&gt;&lt;/p&gt;&lt;p style=&quot;margin:0px;margin-left:4px;&quot;&gt;&lt;font style=&quot;font-size: 18px;&quot;&gt;+ state: CalculatorState&lt;br&gt;&lt;/font&gt;&lt;/p&gt;&lt;hr size=&quot;1&quot;&gt;&lt;p style=&quot;margin:0px;margin-left:4px;&quot;&gt;&lt;font style=&quot;font-size: 18px;&quot;&gt;+ onAction(action: CalculatorActions)&lt;br&gt;- enterNumber(number: Int)&lt;/font&gt;&lt;/p&gt;&lt;p style=&quot;margin:0px;margin-left:4px;&quot;&gt;&lt;font style=&quot;font-size: 18px;&quot;&gt;- enterOperation(operation: CalculatorOperations)&lt;/font&gt;&lt;/p&gt;&lt;p style=&quot;margin:0px;margin-left:4px;&quot;&gt;&lt;font style=&quot;font-size: 18px;&quot;&gt;- enterDecimal()&lt;/font&gt;&lt;/p&gt;&lt;p style=&quot;margin:0px;margin-left:4px;&quot;&gt;&lt;font style=&quot;font-size: 18px;&quot;&gt;- performDeletion()&lt;/font&gt;&lt;/p&gt;&lt;p style=&quot;margin:0px;margin-left:4px;&quot;&gt;&lt;span style=&quot;font-size: 18px;&quot;&gt;- performCalculation()&lt;/span&gt;&lt;/p&gt;" style="verticalAlign=top;align=left;overflow=fill;fontSize=12;fontFamily=Helvetica;html=1;rounded=0;shadow=0;comic=0;labelBackgroundColor=none;strokeWidth=1" vertex="1" parent="1">
          <mxGeometry x="2060" y="182.5" width="420" height="257.5" as="geometry" />
        </mxCell>
        <mxCell id="_NkSw2tW3m_VgN2hIup7-13" value="&lt;span style=&quot;font-size: 18px;&quot;&gt;MainActivity&lt;/span&gt;" style="html=1;rounded=0;shadow=0;comic=0;labelBackgroundColor=none;strokeWidth=1;fontFamily=Verdana;fontSize=10;align=center;" vertex="1" parent="1">
          <mxGeometry x="1810" y="350" width="160" height="57" as="geometry" />
        </mxCell>
        <mxCell id="_NkSw2tW3m_VgN2hIup7-14" value="" style="endArrow=diamondThin;endFill=0;endSize=24;html=1;rounded=0;entryX=0;entryY=0;entryDx=0;entryDy=103;entryPerimeter=0;exitX=0;exitY=0;exitDx=230;exitDy=94.5;exitPerimeter=0;" edge="1" parent="1" source="_NkSw2tW3m_VgN2hIup7-4" target="_NkSw2tW3m_VgN2hIup7-10">
          <mxGeometry width="160" relative="1" as="geometry">
            <mxPoint x="1570" y="590" as="sourcePoint" />
            <mxPoint x="1730" y="590" as="targetPoint" />
          </mxGeometry>
        </mxCell>
        <mxCell id="_NkSw2tW3m_VgN2hIup7-16" value="&lt;font style=&quot;font-size: 18px;&quot;&gt;Use&lt;/font&gt;" style="endArrow=open;endSize=12;dashed=1;html=1;rounded=0;entryX=0;entryY=0;entryDx=190;entryDy=65;entryPerimeter=0;exitX=0;exitY=0.5;exitDx=0;exitDy=0;" edge="1" parent="1" source="_NkSw2tW3m_VgN2hIup7-13" target="_NkSw2tW3m_VgN2hIup7-6">
          <mxGeometry x="-0.6823" y="-19" width="160" relative="1" as="geometry">
            <mxPoint x="1850" y="330" as="sourcePoint" />
            <mxPoint x="2010" y="330" as="targetPoint" />
            <Array as="points">
              <mxPoint x="1730" y="379" />
              <mxPoint x="1730" y="330" />
              <mxPoint x="1730" y="285" />
            </Array>
            <mxPoint x="-1" as="offset" />
          </mxGeometry>
        </mxCell>
        <mxCell id="_NkSw2tW3m_VgN2hIup7-18" value="" style="endArrow=open;endSize=12;dashed=1;html=1;rounded=0;entryX=0;entryY=0;entryDx=330;entryDy=103;entryPerimeter=0;exitX=0;exitY=0.5;exitDx=0;exitDy=0;" edge="1" parent="1" source="_NkSw2tW3m_VgN2hIup7-13" target="_NkSw2tW3m_VgN2hIup7-10">
          <mxGeometry width="160" relative="1" as="geometry">
            <mxPoint x="1860" y="389" as="sourcePoint" />
            <mxPoint x="1600" y="295" as="targetPoint" />
            <Array as="points">
              <mxPoint x="1730" y="379" />
              <mxPoint x="1730" y="524" />
            </Array>
          </mxGeometry>
        </mxCell>
        <mxCell id="_NkSw2tW3m_VgN2hIup7-21" value="&lt;p style=&quot;margin: 4px 0px 0px; text-align: center;&quot;&gt;&lt;i style=&quot;border-color: var(--border-color); font-size: 18px;&quot;&gt;&amp;lt;&amp;lt;Sealed Class&amp;gt;&amp;gt;&lt;/i&gt;&lt;br style=&quot;border-color: var(--border-color); font-size: 18px;&quot;&gt;&lt;b style=&quot;border-color: var(--border-color); font-size: 18px;&quot;&gt;CalculatorOperations(symbol: String)&lt;/b&gt;&lt;br&gt;&lt;/p&gt;&lt;hr&gt;&lt;p style=&quot;margin:0px;margin-left:8px;&quot;&gt;&lt;span style=&quot;font-size: 18px;&quot;&gt;&lt;b&gt;object &lt;/b&gt;Add: CalculatorOperations(&quot;+&quot;)&lt;/span&gt;&lt;/p&gt;&lt;p style=&quot;margin:0px;margin-left:8px;&quot;&gt;&lt;span style=&quot;font-size: 18px;&quot;&gt;&lt;b&gt;object &lt;/b&gt;Subtract: CalculatorOperations(&quot;-&quot;)&lt;/span&gt;&lt;/p&gt;&lt;p style=&quot;margin:0px;margin-left:8px;&quot;&gt;&lt;span style=&quot;font-size: 18px;&quot;&gt;&lt;b&gt;object &lt;/b&gt;Multiply: CalculatorOperations(&quot;*&quot;)&lt;/span&gt;&lt;/p&gt;&lt;p style=&quot;margin:0px;margin-left:8px;&quot;&gt;&lt;span style=&quot;font-size: 18px;&quot;&gt;&lt;b&gt;object &lt;/b&gt;Divide: CalculatorOperations(&quot;/&quot;)&lt;/span&gt;&lt;/p&gt;" style="verticalAlign=top;align=left;overflow=fill;fontSize=12;fontFamily=Helvetica;html=1;whiteSpace=wrap;" vertex="1" parent="1">
          <mxGeometry x="2605" y="231.25" width="370" height="160" as="geometry" />
        </mxCell>
        <mxCell id="_NkSw2tW3m_VgN2hIup7-22" value="&lt;i style=&quot;border-color: var(--border-color); font-family: Helvetica; font-size: 18px;&quot;&gt;&amp;lt;&amp;lt;Data Class&amp;gt;&amp;gt;&lt;/i&gt;&lt;br style=&quot;border-color: var(--border-color); font-family: Helvetica; font-size: 18px;&quot;&gt;&lt;b style=&quot;border-color: var(--border-color); font-family: Helvetica; font-size: 18px;&quot;&gt;CalculatorState(&lt;br&gt;val number1: String = &quot;&quot;,&lt;br&gt;val number2: String = &quot;&quot;,&lt;br&gt;val operation: CalculatorOperations? = null)&lt;/b&gt;" style="html=1;rounded=0;shadow=0;comic=0;labelBackgroundColor=none;strokeWidth=1;fontFamily=Verdana;fontSize=10;align=center;" vertex="1" parent="1">
          <mxGeometry x="2595" y="560" width="390" height="130" as="geometry" />
        </mxCell>
        <mxCell id="_NkSw2tW3m_VgN2hIup7-23" value="&lt;p style=&quot;margin: 4px 0px 0px; text-align: center;&quot;&gt;&lt;i style=&quot;border-color: var(--border-color); font-size: 18px;&quot;&gt;&amp;lt;&amp;lt;Sealed Class&amp;gt;&amp;gt;&lt;/i&gt;&lt;br style=&quot;border-color: var(--border-color); font-size: 18px;&quot;&gt;&lt;b style=&quot;border-color: var(--border-color); font-size: 18px;&quot;&gt;CalculatorActions&lt;/b&gt;&lt;br&gt;&lt;/p&gt;&lt;hr&gt;&lt;p style=&quot;margin:0px;margin-left:8px;&quot;&gt;&lt;span style=&quot;font-size: 18px;&quot;&gt;&lt;b&gt;data class &lt;/b&gt;Number(number: Int): CalculatorActions()&lt;/span&gt;&lt;/p&gt;&lt;p style=&quot;margin:0px;margin-left:8px;&quot;&gt;&lt;span style=&quot;font-size: 18px;&quot;&gt;&lt;b&gt;object &lt;/b&gt;Clear: CalculatorActions()&lt;/span&gt;&lt;/p&gt;&lt;p style=&quot;margin:0px;margin-left:8px;&quot;&gt;&lt;span style=&quot;font-size: 18px;&quot;&gt;&lt;b&gt;object &lt;/b&gt;Delete: CalculatorActions()&lt;/span&gt;&lt;/p&gt;&lt;p style=&quot;margin:0px;margin-left:8px;&quot;&gt;&lt;span style=&quot;font-size: 18px;&quot;&gt;&lt;b&gt;object &lt;/b&gt;Decimal: CalculatorActions()&lt;/span&gt;&lt;/p&gt;&lt;p style=&quot;margin:0px;margin-left:8px;&quot;&gt;&lt;span style=&quot;font-size: 18px;&quot;&gt;&lt;b&gt;object &lt;/b&gt;CalculateTotal: CalculatorActions()&lt;/span&gt;&lt;/p&gt;&lt;p style=&quot;border-color: var(--border-color); margin: 0px 0px 0px 8px;&quot;&gt;&lt;font style=&quot;font-size: 18px;&quot;&gt;&lt;b style=&quot;border-color: var(--border-color);&quot;&gt;data class&amp;nbsp;&lt;/b&gt;Operation(operation: CalculatorOperations): CalculatorActions()&lt;/font&gt;&lt;/p&gt;&lt;div&gt;&lt;span style=&quot;border-color: var(--border-color); font-size: 18px;&quot;&gt;&lt;br&gt;&lt;/span&gt;&lt;/div&gt;" style="verticalAlign=top;align=left;overflow=fill;fontSize=12;fontFamily=Helvetica;html=1;whiteSpace=wrap;" vertex="1" parent="1">
          <mxGeometry x="1880" y="540" width="610" height="200" as="geometry" />
        </mxCell>
        <mxCell id="_NkSw2tW3m_VgN2hIup7-28" value="" style="endArrow=open;endFill=1;endSize=12;html=1;rounded=0;exitX=0.5;exitY=1;exitDx=0;exitDy=0;exitPerimeter=0;entryX=0;entryY=0.5;entryDx=0;entryDy=0;" edge="1" parent="1" source="_NkSw2tW3m_VgN2hIup7-10" target="_NkSw2tW3m_VgN2hIup7-23">
          <mxGeometry width="160" relative="1" as="geometry">
            <mxPoint x="1970" y="520" as="sourcePoint" />
            <mxPoint x="2130" y="520" as="targetPoint" />
            <Array as="points">
              <mxPoint x="1505" y="640" />
            </Array>
          </mxGeometry>
        </mxCell>
        <mxCell id="_NkSw2tW3m_VgN2hIup7-29" value="" style="endArrow=open;endFill=1;endSize=12;html=1;rounded=0;exitX=0.5;exitY=1;exitDx=0;exitDy=0;exitPerimeter=0;entryX=0.5;entryY=1;entryDx=0;entryDy=0;" edge="1" parent="1" source="_NkSw2tW3m_VgN2hIup7-10" target="_NkSw2tW3m_VgN2hIup7-22">
          <mxGeometry width="160" relative="1" as="geometry">
            <mxPoint x="1515" y="609" as="sourcePoint" />
            <mxPoint x="1890" y="650" as="targetPoint" />
            <Array as="points">
              <mxPoint x="1505" y="790" />
              <mxPoint x="2790" y="790" />
            </Array>
          </mxGeometry>
        </mxCell>
        <mxCell id="_NkSw2tW3m_VgN2hIup7-30" value="" style="endArrow=open;endFill=1;endSize=12;html=1;rounded=0;exitX=0.5;exitY=1;exitDx=0;exitDy=0;" edge="1" parent="1" source="_NkSw2tW3m_VgN2hIup7-12">
          <mxGeometry width="160" relative="1" as="geometry">
            <mxPoint x="1515" y="609" as="sourcePoint" />
            <mxPoint x="2270" y="540" as="targetPoint" />
          </mxGeometry>
        </mxCell>
        <mxCell id="_NkSw2tW3m_VgN2hIup7-31" value="" style="endArrow=open;endFill=1;endSize=12;html=1;rounded=0;exitX=1;exitY=0.5;exitDx=0;exitDy=0;entryX=0;entryY=0.5;entryDx=0;entryDy=0;" edge="1" parent="1" source="_NkSw2tW3m_VgN2hIup7-12" target="_NkSw2tW3m_VgN2hIup7-21">
          <mxGeometry width="160" relative="1" as="geometry">
            <mxPoint x="2280" y="450" as="sourcePoint" />
            <mxPoint x="2280" y="550" as="targetPoint" />
          </mxGeometry>
        </mxCell>
        <mxCell id="_NkSw2tW3m_VgN2hIup7-32" value="" style="endArrow=open;endFill=1;endSize=12;html=1;rounded=0;exitX=0.5;exitY=0;exitDx=0;exitDy=0;entryX=0.5;entryY=1;entryDx=0;entryDy=0;" edge="1" parent="1" source="_NkSw2tW3m_VgN2hIup7-22" target="_NkSw2tW3m_VgN2hIup7-21">
          <mxGeometry width="160" relative="1" as="geometry">
            <mxPoint x="2280" y="450" as="sourcePoint" />
            <mxPoint x="2280" y="550" as="targetPoint" />
          </mxGeometry>
        </mxCell>
        <mxCell id="_NkSw2tW3m_VgN2hIup7-34" value="" style="endArrow=open;endFill=1;endSize=12;html=1;rounded=0;exitX=0.75;exitY=1;exitDx=0;exitDy=0;entryX=0.25;entryY=0;entryDx=0;entryDy=0;" edge="1" parent="1" source="_NkSw2tW3m_VgN2hIup7-12" target="_NkSw2tW3m_VgN2hIup7-22">
          <mxGeometry width="160" relative="1" as="geometry">
            <mxPoint x="2280" y="450" as="sourcePoint" />
            <mxPoint x="2280" y="550" as="targetPoint" />
          </mxGeometry>
        </mxCell>
        <mxCell id="_NkSw2tW3m_VgN2hIup7-35" value="" style="endArrow=open;endFill=1;endSize=12;html=1;rounded=0;exitX=0.841;exitY=0.005;exitDx=0;exitDy=0;entryX=0.207;entryY=0.998;entryDx=0;entryDy=0;exitPerimeter=0;entryPerimeter=0;" edge="1" parent="1" source="_NkSw2tW3m_VgN2hIup7-23" target="_NkSw2tW3m_VgN2hIup7-21">
          <mxGeometry width="160" relative="1" as="geometry">
            <mxPoint x="2800" y="570" as="sourcePoint" />
            <mxPoint x="2800" y="401" as="targetPoint" />
          </mxGeometry>
        </mxCell>
        <mxCell id="_NkSw2tW3m_VgN2hIup7-36" value="&#xa;&lt;span style=&quot;color: rgb(0, 0, 0); font-family: Helvetica; font-size: 18px; font-style: normal; font-variant-ligatures: normal; font-variant-caps: normal; font-weight: 400; letter-spacing: normal; orphans: 2; text-align: center; text-indent: 0px; text-transform: none; widows: 2; word-spacing: 0px; -webkit-text-stroke-width: 0px; background-color: rgb(255, 255, 255); text-decoration-thickness: initial; text-decoration-style: initial; text-decoration-color: initial; float: none; display: inline !important;&quot;&gt;Use&lt;/span&gt;&#xa;&#xa;" style="endArrow=open;endSize=12;dashed=1;html=1;rounded=0;entryX=0;entryY=0.75;entryDx=0;entryDy=0;exitX=1;exitY=0.5;exitDx=0;exitDy=0;" edge="1" parent="1" source="_NkSw2tW3m_VgN2hIup7-13" target="_NkSw2tW3m_VgN2hIup7-12">
          <mxGeometry x="-0.1131" y="-3" width="160" relative="1" as="geometry">
            <mxPoint x="1820" y="389" as="sourcePoint" />
            <mxPoint x="1680" y="534" as="targetPoint" />
            <mxPoint as="offset" />
          </mxGeometry>
        </mxCell>
      </root>
    </mxGraphModel>
  </diagram>
</mxfile>
